<svg xmlns:dc="http://purl.org/dc/elements/1.1/" xmlns:cc="http://creativecommons.org/ns#" xmlns:rdf="http://www.w3.org/1999/02/22-rdf-syntax-ns#" xmlns:svg="http://www.w3.org/2000/svg" xmlns="http://www.w3.org/2000/svg" xmlns:sodipodi="http://sodipodi.sourceforge.net/DTD/sodipodi-0.dtd" xmlns:inkscape="http://www.inkscape.org/namespaces/inkscape" width="100" height="100" viewBox="0 0 80 80" version="1.1" id="svg2" inkscape:version="0.48.2 r9819" sodipodi:docname="blank.svg">
  <metadata id="metadata10">
    <rdf:RDF>
      <cc:Work rdf:about="">
        <dc:format>image/svg+xml</dc:format>
        <dc:type rdf:resource="http://purl.org/dc/dcmitype/StillImage"/>
        <dc:title/>
      </cc:Work>
    </rdf:RDF>
  </metadata>
  <defs id="defs8"/>
  <sodipodi:namedview pagecolor="#ffffff" bordercolor="#666666" borderopacity="1" objecttolerance="10" gridtolerance="10" guidetolerance="10" inkscape:pageopacity="0" inkscape:pageshadow="2" inkscape:window-width="1366" inkscape:window-height="706" id="namedview6" showgrid="true" inkscape:zoom="5.17" inkscape:cx="37.585424" inkscape:cy="51.949027" inkscape:window-x="-8" inkscape:window-y="-8" inkscape:window-maximized="1" inkscape:current-layer="svg2" inkscape:snap-grids="false">
    <inkscape:grid type="xygrid" id="grid3807"/>
  </sodipodi:namedview>
  <path style="font-size:medium;font-style:normal;font-variant:normal;font-weight:normal;font-stretch:normal;text-indent:0;text-align:start;text-decoration:none;line-height:normal;letter-spacing:normal;word-spacing:normal;text-transform:none;direction:ltr;block-progression:tb;writing-mode:lr-tb;text-anchor:start;baseline-shift:baseline;color:#000000;fill:#000000;fill-opacity:1;stroke:none;stroke-width:1px;marker:none;visibility:visible;display:inline;overflow:visible;enable-background:accumulate;font-family:Sans;-inkscape-font-specification:Sans" d="M 34.90625,0.8125 C 33.23444,0.846875 32.228494,0.89915625 31.4375,1.03125 29.603575,1.3369625 28.400695,2.7470538 27.71875,4.5 27.459651,5.1660225 27.277748,5.9950725 27.125,6.78125 c -0.799017,-9.6e-4 -1.80003,-0.013975 -2.46875,0 -1.671809,0.034375 -2.709006,0.055406 -3.5,0.1875 -1.833932,0.3057125 -3.005566,1.7470613 -3.6875,3.5 -0.681861,1.75295 -1.062111,4.00127 -1.21875,6.5625 -0.03781,0.609829 0.01738,1.381036 0,2.03125 l -0.40625,0 C 14.825238,19.0625 14,19.918995 14,20.9375 l 0,3.28125 c 0,1.01852 0.825249,1.84375 1.84375,1.84375 l 0.40625,0 c 0.185325,3.062531 0.590598,6.250138 1.03125,9.625 1.807789,13.844517 5.326619,28.889129 8.1875,36.3125 -0.130438,2.622647 -1.650858,5.909454 -2.875,9.21875 -1.236686,3.343174 -2.158325,7.147203 0,10.46875 l 0.21875,0.40625 0.40625,0.21875 c 6.083467,2.682783 7.571722,2.855404 14.15625,3.46875 L 39.21875,96 l 0,-1.84375 c 0.0071,-0.430633 0.05334,-0.525915 0,-0.84375 0.07876,0.0204 0.102145,-0.0417 0.21875,0 0.464954,0.164926 1.068154,0.643371 1.84375,1.25 1.551167,1.213027 3.384449,3.043981 5.9375,3.46875 10.24141,1.703971 19.294311,0.495139 30.75,-2.84375 L 79,94.75 l 0.21875,-1 c 0.11635,-0.85994 0.227089,-1.690625 0.1875,-2.46875 2.827469,-0.559859 5.730385,-1.15508 8.84375,-2.0625 l 1,-0.40625 0.21875,-1.03125 C 89.934044,84.34149 89.081089,81.570281 87.40625,79.375 85.731358,77.179724 83.330216,75.659981 80.84375,74.46875 75.870789,72.086282 70.150728,70.783009 67.9375,69.34375 64.550047,67.059766 60.461896,63.241959 59.125,59.90625 52.225305,42.690716 56.890828,21.701307 57.6875,2.65625 l 0.1875,-1.625 -1.625,0 C 51.571215,0.9141875 45.783577,0.82303875 41.0625,0.8125 c -2.360546,-0.00525 -4.484437,-0.034375 -6.15625,0 z m -2.875,3.28125 c 0.161185,-0.0272 1.462383,0.032863 3.09375,0 1.631356,-0.032113 3.592487,-0.00525 5.9375,0 4.144034,0.00988 9.057229,0.1239313 13.34375,0.21875 -0.01435,0.2654825 0.01549,0.5459438 0,0.8125 L 31,5.125 c 0.343375,-0.6222125 0.777001,-0.9888888 1.03125,-1.03125 z m 15.40625,4.3125 6.5625,0 c -1.313613,17.175659 -4.644625,36.061694 2.03125,52.71875 1.836225,4.581586 6.377845,8.390623 10.0625,10.875 3.359375,2.184605 8.855293,3.177122 13.3125,5.3125 2.228609,1.067704 4.142046,2.331153 5.34375,3.90625 0.465826,0.610565 0.839236,1.459226 1.03125,2.25 -2.741383,0.818793 -5.744379,1.287879 -8.8125,1.65625 -1.664345,-2.071848 -3.97734,-3.570054 -6.375,-4.71875 C 65.620784,78.023783 59.900724,76.720505 57.6875,75.28125 54.300055,72.997266 50.180639,69.179459 48.84375,65.84375 41.944047,48.62822 46.640831,27.670061 47.4375,8.625 z M 21.78125,10.0625 c 0.161224,-0.0272 1.462379,0.03286 3.09375,0 1.63136,-0.03211 3.59249,-0.0053 5.9375,0 4.14403,0.0099 9.025975,0.09261 13.3125,0.1875 -0.01435,0.26552 0.01549,0.57719 0,0.84375 l -23.375,0 c 0.343336,-0.622216 0.777001,-0.988892 1.03125,-1.03125 z m -1.84375,4.3125 23.78125,0 c -1.313604,17.175651 -4.613366,36.030436 2.0625,52.6875 1.836214,4.581586 6.377834,8.390619 10.0625,10.875 3.359364,2.184605 8.855285,3.208369 13.3125,5.34375 2.228605,1.0677 4.142047,2.331153 5.34375,3.90625 0.465826,0.610561 0.839236,1.459217 1.03125,2.25 -9.069683,2.708794 -20.283118,3.076516 -30.78125,1.71875 -0.994403,-0.810079 -2.040343,-1.713687 -3.375,-2.1875 -0.735559,-0.261128 -1.530972,-0.362556 -2.4375,-0.25 -0.871661,0.108233 -1.82814,0.414142 -2.875,1 C 31.911783,88.740369 28.010609,87.510179 24.65625,85.9375 24.79326,84.817656 25.174814,83.635914 25.6875,82.25 26.838305,79.138977 28.605801,75.689158 28.75,72 l 0,-0.21875 0,-0.40625 C 26.118558,64.732639 22.368101,49.109055 20.5625,35.28125 20.138996,32.038044 19.717099,28.984444 19.53125,26.0625 l 9.4375,0 c 0.892129,1.031973 2.265429,1.625 3.6875,1.625 2.695841,0 4.71875,-2.257985 4.71875,-5.125 0,-2.867008 -2.022909,-5.34375 -4.71875,-5.34375 -1.422071,0 -2.79536,0.811811 -3.6875,1.84375 l -9.4375,0 c 0.01435,-0.575775 -0.03286,-1.310669 0,-1.84375 0.06399,-1.038821 0.280055,-1.991081 0.40625,-2.84375 z m 65.84375,69.9375 c 0.1006,0.69622 0.204536,1.249631 0.1875,2.03125 -2.567664,0.720335 -5.024529,1.192425 -7.375,1.65625 -0.274926,-0.692276 -0.624644,-1.454345 -1.03125,-2.0625 2.833251,-0.402175 5.664248,-0.869994 8.21875,-1.625 z m -61.125,2.4375 c 3.442118,1.586018 7.280533,3.008276 11.46875,4 l 0.28125,-0.125 0.185118,-0.105521 c 0.251592,-0.145379 0.331727,-0.127248 0.564882,-0.238229 0.140306,-0.06678 0.272123,-0.132386 0.40625,-0.1875 1.426081,-0.585993 2.526708,-0.533025 3.5,-0.1875 0.621116,0.220501 1.18767,0.58464 1.75,1 l 1.625,1.28125 c 10.577724,1.349115 21.841262,0.797122 31.09375,-1.9375 0.1006,0.696216 0.204536,1.280886 0.1875,2.0625 -10.510845,2.948567 -18.623155,3.976825 -27.875,2.4375 -0.772839,-0.128636 -2.07488,-0.941417 -3.40625,-1.9375 L 41.28125,90.65625 C 41.211966,90.621 41.136114,90.57168 41.0625,90.53125 40.866403,90.42355 40.638999,90.321483 40.4375,90.25 39.807882,90.02683 39.117045,90.087322 38.375,90.21875 L 36.5625,90.875 c -0.303371,0.268656 -0.728313,0.554333 -0.84375,1.03125 -0.01322,0.05251 0.0079,0.137448 0,0.1875 -4.037145,-0.421762 -5.999298,-0.7147 -10.4375,-2.65625 -0.417784,-0.797544 -0.649369,-1.750116 -0.625,-2.6875 z" transform="scale(0.8,0.8)" id="path3983" inkscape:connector-curvature="0" sodipodi:nodetypes="scsccccccsssscscscccccccccsccccccccscscccsscccccccccscssccscscccccccccccscssccssccccccsccssscccccccccccccssscccccccsccccccc"/>
</svg>