<svg xmlns="http://www.w3.org/2000/svg" xmlns:xlink="http://www.w3.org/1999/xlink" version="1.1" x="0px" y="0px" width="100px" height="100px" viewBox="0 0 100 100" enable-background="new 0 0 100 100" xml:space="preserve">
<g id="Captions">
	<rect x="-606" y="-138" width="185" height="99"/>
	<rect x="-414" y="-174" width="100" height="30"/>
	<text transform="matrix(1 0 0 1 -348 -157.5)" fill="#000000" font-family="'Helvetica'" font-size="2.4">http://thenounproject.com</text>
	<text transform="matrix(1 0 0 1 -406.834 -162.5)"><tspan x="0" y="0" fill="#000000" font-family="'Helvetica-Bold'" font-size="6.1578">The Noun Project</tspan><tspan x="1.12" y="4.8" fill="#000000" font-family="'Helvetica-Bold'" font-size="4">Icon Template</tspan></text>
	<text transform="matrix(1 0 0 1 -592.5 -127.5)" fill="#000000" font-family="'Helvetica-Bold'" font-size="6.1578">Reminders</text>
	<line fill="#000000" stroke="#FFFFFF" stroke-miterlimit="10" x1="-406" y1="-152.5" x2="-396" y2="-152.5"/>
	<line fill="#000000" stroke="#FFFFFF" stroke-miterlimit="10" x1="-593" y1="-121.5" x2="-576" y2="-121.5"/>
	<g>
		<g>
			<g>
				<rect x="-584.802" y="-106.682" fill="#000000" width="8.721" height="8.642"/>
				<path fill="#000000" d="M-578.455-95.688h4.747v-4.703h-4.747V-95.688z M-573.266-95.251h-5.63v-5.579h5.63V-95.251      L-573.266-95.251z M-580.221-93.938h8.279v-8.203h-8.279V-93.938L-580.221-93.938z M-571.5-93.5h-9.163v-9.079h9.163V-93.5      L-571.5-93.5z"/>
				<polygon fill="#000000" points="-580.149,-93.867 -580.292,-94.009 -572.013,-102.213 -571.871,-102.071     "/>
			</g>
		</g>
	</g>
	<rect x="-593" y="-80" fill="none" width="35" height="32.5"/>
	<text transform="matrix(1 0 0 1 -593 -77.8428)"><tspan x="0" y="0" fill="#000000" font-family="'Helvetica-Bold'" font-size="3">Strokes</tspan><tspan x="0" y="5" fill="#000000" font-family="'Helvetica'" font-size="2.4">Try to keep strokes at 4px</tspan><tspan x="0" y="10" fill="#000000" font-family="'Helvetica'" font-size="2.4">Minimum stroke weight is 2px</tspan><tspan x="0" y="14.5" fill="#000000" font-family="'Helvetica'" font-size="2.4">For thicker strokes use even </tspan><tspan x="0" y="17.5" fill="#000000" font-family="'Helvetica'" font-size="2.4">numbers: 6px, 8px etc.</tspan><tspan x="0" y="22" fill="#000000" font-family="'Helvetica-Bold'" font-size="2.4">Remember to expand strokes </tspan><tspan x="0" y="25" fill="#000000" font-family="'Helvetica-Bold'" font-size="2.4">before saving as an SVG </tspan></text>
	<rect x="-550.5" y="-80" fill="none" width="35" height="32.5"/>
	<text transform="matrix(1 0 0 1 -550.5 -77.8428)"><tspan x="0" y="0" fill="#000000" font-family="'Helvetica-Bold'" font-size="3">Size</tspan><tspan x="0" y="5" fill="#000000" font-family="'Helvetica'" font-size="2.4">Cannot be wider or taller than </tspan><tspan x="0" y="8.5" fill="#000000" font-family="'Helvetica'" font-size="2.4">100px (artboard size)</tspan><tspan x="0" y="13.5" fill="#000000" font-family="'Helvetica'" font-size="2.4">Scale your icon to fill as much of </tspan><tspan x="0" y="16.5" fill="#000000" font-family="'Helvetica'" font-size="2.4">the artboard as possible</tspan></text>
	<rect x="-508" y="-80" fill="none" width="35" height="32.5"/>
	<text transform="matrix(1 0 0 1 -508 -77.8428)"><tspan x="0" y="0" fill="#000000" font-family="'Helvetica-Bold'" font-size="3">Ungroup</tspan><tspan x="0" y="5" fill="#000000" font-family="'Helvetica'" font-size="2.4">If your design has more than one </tspan><tspan x="0" y="8" fill="#000000" font-family="'Helvetica'" font-size="2.4">shape, make sure to ungroup</tspan></text>
	<rect x="-464" y="-80" fill="none" width="35" height="32.5"/>
	<text transform="matrix(1 0 0 1 -464 -77.8428)"><tspan x="0" y="0" fill="#000000" font-family="'Helvetica-Bold'" font-size="3">Save as</tspan><tspan x="0" y="5" fill="#000000" font-family="'Helvetica'" font-size="2.4">Save as .SVG and make sure </tspan><tspan x="0" y="8" fill="#000000" font-family="'Helvetica'" font-size="2.4">&#8220;Use Artboards&#8221; is checked</tspan></text>
	<text transform="matrix(1.0074 0 0 1 -539.542 -107.4067)" fill="#000000" font-family="'Helvetica'" font-size="2.5731">100px</text>
	<text transform="matrix(1.0074 0 0 1 -455 -99)" fill="#000000" font-family="'Helvetica-Bold'" font-size="5.1462">.SVG</text>
	<rect x="-540.514" y="-103.185" fill="#000000" width="10.261" height="10.185"/>
	<rect x="-540.477" y="-106.234" fill="#000000" width="0.522" height="2.337"/>
	<rect x="-530.812" y="-106.234" fill="#000000" width="0.523" height="2.337"/>
	<rect x="-541" y="-105.663" fill="#000000" width="11.233" height="0.572"/>
	<g>
		<rect x="-497.805" y="-104.156" fill="#000000" width="10.305" height="10.156"/>
		<rect x="-490.809" y="-109.293" fill="#000000" width="3.308" height="3.261"/>
	</g>
	<rect x="-592.5" y="-115.5" fill="#000000" stroke="#FFFFFF" stroke-miterlimit="10" width="30" height="30"/>
	<rect x="-550.5" y="-115.5" fill="#000000" stroke="#FFFFFF" stroke-miterlimit="10" width="30" height="30"/>
	<rect x="-507.5" y="-115.5" fill="#000000" stroke="#FFFFFF" stroke-miterlimit="10" width="30" height="30"/>
	<rect x="-463.5" y="-115.5" fill="#000000" stroke="#FFFFFF" stroke-miterlimit="10" width="30" height="30"/>
</g>
<g id="Your_Icon">
	<polygon fill="#000000" points="-356.782,-100.038 -327.983,-137.466 -366.28,-133.34 -388.552,-86.914 -379.016,-87.932    -388.156,-68.311 -377.684,-69.492 -391.833,-39.382 -353.168,-79.617 -361.927,-78.229 -343.095,-101.529  "/>
	<path fill="#000000" d="M-190.094-121.49c0,0-8.393-15.574-36.087-14.453c0,0-29.559,0.465-33.383,23.684   c0,0-0.931,6.061,0.467,10.071c0,0,2.425,5.314-0.372,9.044c0,0-5.129,8.394-5.503,8.859c0,0-2.982,4.012,1.213,4.941   c0,0,2.33,0.652,4.382,0.652c0,0-0.745,3.357-1.117,4.197c0,0-0.654,1.771,1.771,2.424c0,0,1.864,0.934,1.211,1.586   c0,0-1.211,0.373-1.771,1.771c0,0-0.092,1.957,1.958,2.703c0,0,2.612,1.119,1.399,5.035c0,0-2.61,5.875,3.264,7.645   c0,0,6.062,1.027,10.815-1.678c0,0,2.146-1.396,2.706,1.494c0,0,2.051,11.654,2.143,13.893c0,0,30.586,2.238,36.928-9.51   l-2.146-17.064c0,0-1.399-6.34,6.153-13.148C-196.062-79.344-176.2-98.18-190.094-121.49z M-195.899-90.759   c0,0-7.076,7.882-19.351-4.392c0,0-5.104-6.54-19.975-6.09c0,0-13.798,2.24-17.942-8.406c0,0-4.812-13.543,17.762-20.798   c0,0,23.472-6.542,39.866,9.764C-195.539-120.681-181.744-105.541-195.899-90.759z"/>
	<path fill="#000000" d="M-39.604-92.631c0-3.534-2.396-6.495-5.396-7.641v-20.474c-14,15.04-40,16.557-45,16.709V-107h-34.749   c-3.308,0-5.985,3.096-6.009,6.396c-2.951,1.236-5.024,4.359-5.024,7.761c0,3.401,2.073,6.974,5.024,8.208   c0.023,3.303,2.701,6.635,6.009,6.635h1.476l4.183,20.29c0.312,1.542,1.812,2.321,3.354,2.013l8.373-1.798   c1.542-0.312,2.539-1.863,2.229-3.407c0,0-3.346-2.456-3.57-6.7c-0.052-0.994-0.029-2.616,0.033-4.484   c1.17-0.06,2.104-1.136,2.104-2.477c0-1.25-0.826-1.814-1.887-1.992c0.033-0.633,0.068-1.444,0.104-1.444H-90v-3.201   c5,0.285,31,2.392,45,16.686V-84.99C-42-86.136-39.604-89.097-39.604-92.631z"/>
	<path fill="#000000" d="M394.23-175.202l-6.695,4.201l-1.668-35.905h-6.198l-1.803,41.984l-2.935,1.861l-11.949-12.136   l-17.952,12.096l-12.721-12.1l-20.754,13.429v37.866h33.795h27.546h2.296h30.363v-38.899L394.23-175.202z M329.556-131.906h-9v-9h9   V-131.906z M329.556-144.906h-9v-9h9V-144.906z M343.556-131.906h-9v-9h9V-131.906z M343.556-144.906h-9v-9h9V-144.906z    M357.556-131.906h-9v-9h9V-131.906z M357.556-144.906h-9v-9h9V-144.906z M371.556-131.906h-9v-9h9V-131.906z M371.556-144.906h-9   v-9h9V-144.906z"/>
	<path fill="#000000" d="M61.583-97.028h-0.886c0.001-0.023,0.016-0.047,0.016-0.069l-1.075-33.881h0.272   c0.235,0,0.426-0.16,0.426-0.359v-4.703c0-0.2-0.19-0.363-0.426-0.363h-4.063c-0.238,0-0.428,0.164-0.428,0.363v4.703   c0,0.199,0.189,0.359,0.428,0.359h0.271L55.04-97.097c0,0.022,0.015,0.045,0.018,0.069H45.18v-3.68h-3.679v3.68h-3.524   c-3.133,0-5.674,2.54-5.674,5.673v27.44h-1.228c-0.379,0-0.612,0.553-0.612,0.927v9.27c0,0.377,0.233,0.842,0.612,0.842h1.228   v7.204c0,3.133,2.541,5.673,5.674,5.673h23.606c3.133,0,5.673-2.54,5.673-5.673v-45.683C67.256-94.489,64.716-97.028,61.583-97.028   z M49.936-92.465c5.64,0,10.212,4.574,10.212,10.215c0,5.637-4.572,10.208-10.212,10.208c-5.642,0-10.213-4.571-10.213-10.208   C39.723-87.892,44.294-92.465,49.936-92.465z M57.501-67.12c0,1.354-1.102,2.454-2.461,2.454c-1.358,0-2.458-1.1-2.458-2.454   c0-1.361,1.1-2.465,2.458-2.465C56.399-69.585,57.501-68.481,57.501-67.12z M46.908-67.12c0,1.976-1.605,3.586-3.591,3.586   s-3.591-1.61-3.591-3.586c0-1.991,1.605-3.597,3.591-3.597S46.908-69.111,46.908-67.12z M60.713-47.358H39.154   c-0.625,0-1.133-0.294-1.133-0.92c0-0.629,0.508-0.919,1.133-0.919h21.559c0.629,0,1.136,0.29,1.136,0.919   C61.849-47.652,61.342-47.358,60.713-47.358z M60.713-52.245H39.154c-0.625,0-1.133-0.294-1.133-0.92   c0-0.629,0.508-0.919,1.133-0.919h21.559c0.629,0,1.136,0.29,1.136,0.919C61.849-52.539,61.342-52.245,60.713-52.245z    M60.713-57.132H39.154c-0.625,0-1.133-0.294-1.133-0.92c0-0.628,0.508-0.919,1.133-0.919h21.559c0.629,0,1.136,0.291,1.136,0.919   C61.849-57.426,61.342-57.132,60.713-57.132z"/>
	<path fill="#000000" d="M-335.149,77.188l-3.412-5.002l-0.293-2.306l-8.71-9.396l0.632-0.637l-0.649-0.646l-1.612,1.626   l-1.675-1.661l0.135-0.135l2.88-6.152l-0.646-0.644l-0.008,0.007l-39.824-39.518l5.042-5.08l-0.565-1.374l-8.5,8.564l-8.257-7.488   l3.804-3.835l-1.218-2.015l-14.124,14.234l2.029,1.203l3.804-3.837l7.549,8.196l-8.496,8.561l1.376,0.562l5.047-5.087   l40.184,39.877l0.006-0.007l0.291,0.287l6.261-3.065l0.003-0.002l1.674,1.661l-1.616,1.629l0.649,0.645l0.635-0.639l9.463,8.641   l2.307,0.271l5.025,3.371L-316.808,97l0.808-0.812L-335.149,77.188z M-385.704,30.305l6.596-6.661l1.608,1.601l-6.596,6.659   L-385.704,30.305z M-379.74,36.238l6.595-6.66l1.607,1.6l-6.594,6.659L-379.74,36.238z M-373.519,42.422l6.594-6.661l1.609,1.598   l-6.594,6.661L-373.519,42.422z M-367.508,48.392l6.592-6.659l1.608,1.6l-6.593,6.658L-367.508,48.392z M-359.729,56.135   l-1.606-1.6l6.596-6.659l1.607,1.599L-359.729,56.135z"/>
	<path d="M555.662,185.639c-2.77-4.376-5.395-27.254-6.051-33.326c11.699-2.957,18.212-18.024,14.441-37.398   c-0.077-0.382-10.075-0.771-21.721,1.063c-11.39,1.793-20.773,5.264-20.773,5.264c0.023,0.289,0.072,0.559,0.104,0.844   c-2.271-1.19-10.258-4.373-19.928-6.531c-11.254-2.51-21.257-2.726-21.259-2.726c-5.714,19.426-0.023,34.664,11.498,38.47   c-1.287,5.979-6.228,28.426-8.848,32.687c-6.51-1.388-11.519-1.997-11.666-1.362c-0.166,0.715,6.022,2.761,13.822,4.57   c7.802,1.81,14.261,2.692,14.427,1.978c0.146-0.63-4.649-2.296-11.137-3.923c-0.968-5.09,4.983-27.331,6.603-33.22   c11.587,1.492,22.789-9.382,26.761-27.689c2.597,18.291,12.951,29.121,24.43,28.47c0.999,6.032,4.641,28.732,3.764,33.653   c-6.562,1.102-11.448,2.374-11.352,3.012c0.107,0.729,6.615,0.361,14.537-0.815c7.921-1.182,14.254-2.728,14.146-3.452   C567.364,184.561,562.29,184.77,555.662,185.639z"/>
	<path d="M350.337-103.542c0,0-1.189,14.395,7.378,15.346c0,0,9.278-2.142,13.561-16.298l4.76,0.952c0,0-5.709,13.324,5.235,20.461   c0,0-6.662,9.996-8.09,18.087c0,0,21.295,11.777,24.15,46.755c0,0-2.734,5.118-7.02,4.166c-4.281-0.953-4.996-0.953-8.088,1.428   c-4.009,3.085-6.662,4.045-10.47,1.428c-4.17-2.866-10.23-3.095-13.8,0.476c-2.259,2.258-7.008,3.861-12.374,0   c-4.463-3.214-2.856-4.165-8.925-2.501c-3.688,1.013-7.614-0.595-7.139-3.925c0.477-3.33,5.116-32.122,23.2-46.399   c0,0-1.784-6.543-4.642-8.923c0,0-12.489-6.305-3.924-14.871c0,0,5.235-7.139,0.952-15.706L350.337-103.542z"/>
	<g>
		<polyline points="295.152,60.885 319.963,70.78 326.732,54.068 311.546,46.897   "/>
		<polygon points="343.476,123.791 388.04,62.683 363.736,72.601   "/>
		<polygon points="354.373,52 370.799,44.813 359.669,41 324.413,41 313.657,45.342 328.014,52   "/>
		<polyline points="373.089,46.57 355.696,54.185 363.508,70.854 387.918,60.888   "/>
		<polygon points="354.009,54.434 328.433,54.579 321.703,71 361.736,71   "/>
		<polygon points="319.771,72.593 294.861,62.623 339.537,123.884   "/>
		<polygon points="361.825,72.799 321.654,72.742 341.483,124.194   "/>
	</g>
	<g>
		<path d="M508.431,41.548c-0.34-0.447-0.76-0.901-1.25-1.388c-0.976-0.965-2.228-2.04-3.473-3.062    c-1.348-1.105-2.685-2.143-3.632-2.865l0.626-1.272c0,0-0.013-0.002-0.038-0.006c0.292-0.238,0.446-0.481,0.446-0.73    c0-1.295-4.123-2.472-10.848-3.349c9.924,0.149,9.415-6.346,9.415-6.346c-0.073-4.416-3.512-4.604-3.512-4.604    c-10.311-0.321-11.163,7.545-11.163,7.545l-4.539,2.22l3.801-9.94l0.245-0.981l-12.021-2.453l-0.49,1.718l-0.46,6.037    c-0.052-0.034-0.087-0.058-0.087-0.058c-3.957-1.897-7.846,0.375-7.846,0.375c-0.225,0.155-0.431,0.319-0.619,0.489l0.751-5.126    c0-1.063-0.817-1.228-0.817-1.228l-1.881-0.898l0.164-1.31l-1.227-0.245l0.409-2.29l3.025,0.572l1.062,0.492l-0.245-1.31    l-5.233-1.636c-1.963,0-1.228,1.472-1.228,1.472l1.228,0.328l-0.572,2.044l-1.391,0.082l-0.327,1.391l-1.881,0.326    c-1.309,0.246-1.554,0.9-1.554,0.9l-0.542,3.435l-5.852-0.158l-2.172,2.244l-0.525,5.798c-0.655,0.037-1.302,0.075-1.937,0.115    l-4.287-13.408l-9.551,1.139l-3.864,3.744l2.971,10.131c-4.339,0.783-6.871,1.728-6.871,2.743c0,0.134,0.056,0.265,0.141,0.396    l0.781,1.977c-0.935,0.715-2.202,1.7-3.478,2.748c-1.245,1.021-2.496,2.096-3.472,3.061c-0.491,0.487-0.911,0.94-1.251,1.388    c-0.317,0.477-0.662,0.826-0.718,1.74c-0.04,0.472,0.297,1.195,0.795,1.477c0.476,0.297,0.868,0.319,1.203,0.325    c1.166-0.033,2.46-0.486,4.781-1.438c1.326-0.557,2.958-1.302,4.928-2.253l6.756,17.077c0,0,30.749,8.504,56.918,0l8.696-17.671    c2.299,1.123,4.162,1.978,5.647,2.602c2.321,0.95,3.615,1.404,4.781,1.438c0.336-0.006,0.728-0.028,1.204-0.325    c0.497-0.281,0.835-1.005,0.794-1.477C509.093,42.374,508.748,42.024,508.431,41.548z M418.283,41.182    c-0.115,0.051-0.229,0.099-0.341,0.145c1.274-1.131,2.812-2.374,4.104-3.382c0.225-0.176,0.437-0.341,0.644-0.501l0.577,1.457    C421.239,39.882,419.589,40.636,418.283,41.182z M503.51,40.937c-1.411-0.592-3.227-1.424-5.488-2.527l0.729-1.482    c0.308,0.235,0.641,0.493,0.997,0.772c1.29,1.008,2.828,2.251,4.103,3.382C503.74,41.035,503.625,40.987,503.51,40.937z"/>
	</g>
	<g>
		<circle cx="-352.763" cy="212.815" r="0.742"/>
		<circle cx="-318.77" cy="179.309" r="0.742"/>
		<path d="M-395.385,221.726c-0.046,0.382,0.225,0.73,0.606,0.776c0.379,0.047,0.728-0.225,0.774-0.606s-0.224-0.728-0.606-0.773    C-394.991,221.072-395.339,221.344-395.385,221.726z"/>
		<circle cx="-412.391" cy="204.792" r="0.556"/>
		<circle cx="-322.005" cy="152.831" r="0.602"/>
	</g>
	<path fill="none" d="M-384.611,162.776l0.237-0.207l-0.713-0.53C-384.959,162.303-384.806,162.554-384.611,162.776z"/>
	<path d="M-382.124,162.724l0.073,0.361c0.015,0.072,0.078,0.432,0.034,0.906c36.164,0.275,57.463,11.642,61.903,14.269   c-3.62-6.777-2.702-22.853-2.561-25.007c-1.095-0.096-42.683-3.554-58.492,8.686c-0.181,0.161-0.355,0.313-0.514,0.445   L-382.124,162.724z"/>
	<path d="M-393.55,166.739c1.718-0.836,3.537-1.537,5.263-1.861l-1.445-1.537C-391.037,164.556-392.348,165.715-393.55,166.739z"/>
	<path d="M-381.8,161.164c1.69-1.514,4.297-4.236,5.614-5.631c-4.005,0.854-7.185,2.258-8.359,2.819   c-0.058,0.488-0.134,1.569,0.106,2.541l1.561,1.16C-382.533,161.748-382.171,161.452-381.8,161.164z"/>
	<path d="M-383.331,163.345l-1.757-1.306l0,0l-1.022-0.76l-6.284-4.668c-0.11-0.025-0.209-0.038-0.299-0.038   c-0.011,0-0.019,0.004-0.029,0.004c-0.038,0.002-0.068,0.01-0.103,0.016c-0.057,0.009-0.112,0.019-0.159,0.036   c-0.03,0.013-0.056,0.028-0.083,0.044c-0.04,0.022-0.078,0.046-0.11,0.074c-0.022,0.02-0.042,0.04-0.061,0.062   c-0.027,0.032-0.052,0.063-0.074,0.098c-0.015,0.023-0.028,0.046-0.04,0.07c-0.019,0.036-0.033,0.07-0.046,0.106   c-0.008,0.022-0.017,0.044-0.023,0.065c-0.011,0.037-0.019,0.07-0.026,0.104c-0.003,0.018-0.008,0.034-0.011,0.051   c-0.005,0.034-0.009,0.061-0.011,0.084c-0.001,0.01-0.002,0.019-0.003,0.026c-0.002,0.025-0.002,0.041-0.002,0.041l4.687,4.984   l2.981,3.17C-382.875,165.601-383.331,163.345-383.331,163.345z"/>
	<path d="M-320.225,179.357c-3.223-1.973-24.626-14.14-62.053-14.37c-0.092,0.211-0.209,0.421-0.369,0.626   c8.379,16.219,27.159,42.131,29.749,45.68c1.579-2.967,3.795-5.995,6.337-8.951l10.707,10.797   c-0.134,0.202-0.248,0.411-0.304,0.625c0,0,4.715,4.299,5.141,4.771c0,0,2.888,2.74,5.556,1.197c0,0,3.736-1.538,2.929-6.361   c0,0-0.58-2.784-2.815-4.088c0,0-0.888-0.451-1.582,0.142c0,0-0.764,0.726-0.195,1.562c0,0,2.348,2.011,2.09,3.992   c0,0,0.049,3.362-3.226,2.467c0,0-2.278-1.117-5.981-5.829c0,0-0.192,0.125-0.448,0.324l-10.766-10.856   C-336.048,190.591-322.985,181.278-320.225,179.357z"/>
	<path d="M-394.162,220.685c10.632-7.467,37.627-8.533,40.584-8.627c-1.961-2.685-21.201-29.136-29.839-45.761   c-0.564,0.361-1.274,0.56-2.122,0.597C-397.615,187.781-394.587,217.115-394.162,220.685z"/>
	<path d="M-386.77,166.491c-16.479,7.54-23.672,34.297-24.629,38.147c6.344,2.078,13.936,12.27,16.161,15.414   c-0.617-5.843-2.753-33.294,8.664-53.354l-0.183-0.194L-386.77,166.491z"/>
	<path d="M-402.938,181.243c3.806-6.368,8.86-12.34,15.344-15.457c-3.916,0.547-8.638,3.462-11.208,5.235   C-401.291,173.09-402.562,179.13-402.938,181.243z"/>
	<path d="M-374.633,155.34c-0.105,0.113-1.478,1.591-3.07,3.222c13.292-6.945,35.807-7.178,47.555-6.746   c-7.946-1.409-17.741-3.411-17.741-3.411c-16.599-3.353-26.637,6.814-26.637,6.814"/>
	<g>
		<path d="M-447.569,140.569c0,0,0.457-4.639-5.779-4.563c0,0-5.854-0.227-9.125,2.131c0,0-8.061,5.019-7.757,7.147    c0,0,2.434,26.007,2.89,32.395c0,0,1.521,14.601-0.607,19.087c0,0-1.521,3.878-3.347,7.681c0,0-3.707,6.554-4.239,11.609    c-0.358,1.34-0.751,3.934,0.817,5.88c0,0,3.27,3.422,8.44,1.218c0,0,4.791-1.978,8.365-7.605c0,0,2.357-3.27,1.901-8.137    c0,0-0.08-2.772,0.324-5.422c0.356-1.339,0.775-2.688,1.272-3.931c0,0,3.194-6.769,1.217-10.189c0,0-1.445-2.054-0.457-7.452    C-453.653,180.417-447.874,145.283-447.569,140.569z M-455.63,145.056c0,0-7.11,1.787-13.155,0.152c0,0-1.407-0.494,0.304-1.901    c0,0,4.905-4.106,7.681-5.551c0,0,1.482-0.988,5.552-1.217c0,0,4.524-0.228,5.778,1.331c0,0,1.978,1.711,0.229,3.308    C-449.242,141.178-452.436,144.485-455.63,145.056z"/>
		<path d="M-480.573,211.387c-1.653-3.982-3.012-8.035-3.012-8.035c-1.927-4.699-0.025-19.758-0.025-19.758    c0.629-6.594,3.748-33.426,3.748-33.426c0.357-2.193-7.292-7.606-7.292-7.606c-3.095-2.527-8.766-2.453-8.766-2.453    c-6.029-0.25-5.725,4.56-5.725,4.56c0.155,4.885,4.713,41.381,4.713,41.381c0.797,5.611-0.661,7.694-0.661,7.694    c-2.014,3.485,0.877,10.572,0.877,10.572c0.444,1.299,0.811,2.708,1.115,4.104c0.312,2.751,0.154,5.614,0.154,5.614    c-0.585,5.021,1.6,8.468,1.6,8.468c3.292,5.919,7.867,8.097,7.867,8.097c4.938,2.423,8.202-1.027,8.202-1.027    c1.576-1.972,1.271-4.668,0.964-6.062C-477.182,218.264-480.573,211.387-480.573,211.387z M-495.408,152.659    c-3.022-0.799-5.019-7.072-5.019-7.072c-1.063-2.661,0.7-3.658,0.7-3.658c1.753-1.589,5.631-1.217,5.631-1.217    c3.929,0.348,5.334,1.411,5.334,1.411c2.642,1.57,7.266,5.953,7.266,5.953c1.614,1.502,0.238,1.974,0.238,1.974    C-490.845,154.826-495.408,152.659-495.408,152.659z"/>
	</g>
	<path fill="#000000" d="M69.827,234.668H31.063c-0.008,0-0.016,0-0.023,0h-0.628c-0.553,0-1-0.447-1-1s0.447-1,1-1h0.558   c4.063-0.277,14.742-2.039,15.889-6.855c0.227-1.179,1.339-21.798-0.757-28.649c-0.733-2.391-2.961-3.896-5.781-5.801   c-4.348-2.938-9.759-6.593-12.72-15.479c-5.229-15.703,3.212-34.735,3.574-35.538c0.16-0.356,0.514-0.586,0.904-0.589l22.152-0.089   l13.934,0.12c0.388,0.003,0.739,0.231,0.9,0.584c0.362,0.793,8.805,19.584,3.572,35.288c-2.956,8.877-8.361,12.653-12.703,15.688   c-2.828,1.976-5.062,3.536-5.797,5.937c-2.098,6.852-0.981,27.356-0.751,28.54c1.144,4.805,11.821,6.566,15.885,6.844h0.556   c0.553,0,1,0.447,1,1S70.38,234.668,69.827,234.668z M41.128,232.668h17.984c-3.583-1.245-6.923-3.235-7.674-6.393   c-0.282-1.18-1.466-22.219,0.787-29.577c0.938-3.059,3.545-4.881,6.563-6.989c4.101-2.866,9.204-6.432,11.951-14.682   c4.492-13.48-1.876-29.972-3.244-33.245l-21.566-0.114l-13.181,0.085c-1.367,3.313-7.737,20.024-3.25,33.498   c2.745,8.242,7.844,11.687,11.94,14.454c3.023,2.042,5.634,3.806,6.574,6.872c2.249,7.353,1.072,28.506,0.791,29.696   C48.053,229.432,44.712,231.423,41.128,232.668z"/>
	<path d="M68.56,174.051c2.133-6.551,1.535-13.865,0.316-19.846c-11.153-0.92-28.7-0.426-37.501-0.051   c-1.226,5.983-1.832,13.321,0.307,19.896c2.468,7.58,7.629,10.842,11.077,13.464c7.731,4.081,14.188,0.396,15.012-0.212   c0.03-0.023,0.064-0.049,0.095-0.071c0.007-0.006,0.025-0.021,0.025-0.021l0.006-0.004C61.33,184.632,66.187,181.347,68.56,174.051   z"/>
	<path fill="#000000" d="M207.355,236h-34.978c-0.896,0-1.597-0.662-1.597-1.507c0-0.398,0.165-0.785,0.451-1.061   c0.264-0.253,0.617-0.403,1.006-0.429c0.009-0.001,0.018-0.002,0.026-0.002c3.678-0.227,13.449-1.793,14.49-6.261   c0.205-1.101,1.213-20.314-0.692-26.67c-0.678-2.26-2.451-3.693-4.696-5.51c-3.464-2.801-7.774-6.287-10.476-14.57   c-4.781-14.656,2.915-36.938,3.245-37.879c0.135-0.387,0.493-0.651,0.902-0.668l10.91-0.443l7.724-0.001l11.029,0.461   c0.408,0.017,0.766,0.281,0.901,0.667c0.33,0.938,8.023,23.153,3.237,37.812c-2.698,8.279-7.006,11.807-10.468,14.641   c-2.247,1.841-4.022,3.294-4.701,5.557c-1.907,6.359-0.896,25.509-0.688,26.617c1.034,4.444,10.758,6.014,14.458,6.246   c0.047,0.001,0.093,0.005,0.139,0.012c0.795,0.089,1.372,0.695,1.372,1.481C208.952,235.338,208.251,236,207.355,236z M178.818,234   h22.098c-4.176-1.006-8.994-2.983-9.883-6.806c-0.259-1.1-1.343-20.746,0.722-27.632c0.855-2.849,2.938-4.555,5.351-6.529   c3.26-2.669,7.316-5.991,9.833-13.714c4.142-12.685-1.784-32.133-3.009-35.889l-10.3-0.432L185.989,143l-10.18,0.414   c-1.226,3.77-7.152,23.281-3.017,35.957c2.517,7.721,6.572,11,9.831,13.636c2.414,1.952,4.498,3.639,5.354,6.49   c2.062,6.875,0.981,26.589,0.724,27.697C187.812,231.017,182.993,232.994,178.818,234z"/>
	<path d="M195.631,191.451c0.233-0.174,0.47-0.274,0.711-0.452c3.241-2.386,6.451-5.317,8.769-12.217   c2.085-6.199,1.4-14.415,0.164-21.092c-10.028-0.802-23.55-0.359-30.808-0.025c-1.241,6.681-1.931,14.935,0.159,21.15   c2.32,6.9,5.529,9.72,8.772,12.106c0.103,0.075,0.202,0.078,0.305,0.078h0.155C189.532,195,193.925,192.469,195.631,191.451z"/>
	<path d="M-384,291.25c-0.5,6.25-1.125,14.072-0.938,17.351c0,0.123,0.205,12.228,2.052,18.87l0.019,0.089   c0.127,0.646,3.081,15.836,3.111,19.836c0.086,0.885,0.756,7.956-0.244,17.854c0,0.012,0,0.056,0,0.1   c1,0.802,3.416,3.493,15.032,3.553l0.466-0.003c12.222-0.032,15.203-2.956,15.711-3.554c0-0.035,0.004-0.091,0-0.144   c-1.005-13.579-0.371-17.056-0.252-17.85c0.049-4.064,3.036-19.146,3.177-19.84c1.637-6.824,2.062-18.815,2.067-18.95   c0.151-3.227-0.202-10.812-0.952-17.562C-350.952,290.568-364.091,290.062-384,291.25z"/>
	<path fill="none" stroke="#000000" stroke-width="2" stroke-linecap="round" stroke-linejoin="round" stroke-miterlimit="10" d="   M-341.84,282.273c1.005-0.84,0-1.676,0-1.676c-7.754-0.763-15.596-0.992-22.502-0.968c-6.91-0.024-14.751,0.205-22.509,0.968   c0,0-0.998,0.836,0,1.676c0,0-2.138,17.728-1.67,25.26c0,0,0.205,12.885,2.343,20.079c0,0,3.511,16.571,3.511,20.584   c0,0,1.044,10.042-0.543,20.013c0,0-0.071,0.568,0.134,0.844c0.885,1.206,4.581,4.438,18.609,4.425l0.004-0.005   c13.753-0.037,17.966-3.223,18.851-4.42c0.2-0.275,0.129-0.844,0.129-0.844c-1.336-16.329-0.537-20.013-0.537-20.013   c0-4.013,3.511-20.584,3.511-20.584c1.883-7.356,2.351-20.079,2.351-20.079C-339.795,300.173-341.84,282.273-341.84,282.273z"/>
	<path d="M-206.037,323.034c1.587,0.337-0.508,3.141-0.828,4.478c-0.141,0.694-3.128,15.775-3.177,19.84   c-0.119,0.794-0.753,4.271,0.252,17.85c0.004,0.053,0,0.108,0,0.144c-0.509,0.598-3.489,3.521-15.712,3.554l-0.466,0.003   c-11.616-0.06-14.032-2.751-15.032-3.553c0-0.044,0-0.088,0-0.1c1-9.897,0.33-16.969,0.244-17.854   c-0.03-4-2.984-19.189-3.111-19.836l-0.02-0.089c-0.388-1.395-0.703-3.03-0.959-4.744   C-244.846,322.727-221.5,319.75-206.037,323.034z"/>
	<path fill="none" stroke="#000000" stroke-width="2" stroke-linecap="round" stroke-linejoin="round" stroke-miterlimit="10" d="   M-202.84,282.273c1.005-0.84,0-1.676,0-1.676c-7.754-0.763-15.596-0.992-22.502-0.968c-6.91-0.024-14.751,0.205-22.509,0.968   c0,0-0.997,0.836,0,1.676c0,0-2.138,17.728-1.671,25.26c0,0,0.205,12.885,2.344,20.079c0,0,3.511,16.571,3.511,20.584   c0,0,1.044,10.042-0.543,20.013c0,0-0.071,0.568,0.134,0.844c0.885,1.206,4.58,4.438,18.609,4.425l0.004-0.005   c13.754-0.037,17.967-3.223,18.852-4.42c0.2-0.275,0.129-0.844,0.129-0.844c-1.336-16.329-0.537-20.013-0.537-20.013   c0-4.013,3.511-20.584,3.511-20.584c1.883-7.356,2.351-20.079,2.351-20.079C-200.795,300.173-202.84,282.273-202.84,282.273z"/>
	<g>
		<g>
			<path id="XMLID_29_" display="none" fill="#000000" d="M60.07,317.539c0.348-0.288,0-0.577,0-0.577     c-2.677-0.264-5.386-0.344-7.771-0.334c-2.386-0.01-5.094,0.07-7.772,0.334c0,0-0.346,0.289,0,0.577c0,0-0.738,6.124-0.578,8.726     c0,0,0.072,4.45,0.809,6.934c0,0,1.213,5.724,1.213,7.109c0,0,0.359,3.468-0.187,6.911c0,0-0.024,0.197,0.046,0.291     c0.307,0.417,1.582,1.532,6.428,1.529l0.001-0.002c4.748-0.013,6.204-1.113,6.51-1.527c0.068-0.094,0.043-0.291,0.043-0.291     c-0.461-5.64-0.186-6.911-0.186-6.911c0-1.386,1.214-7.109,1.214-7.109c0.65-2.541,0.811-6.934,0.811-6.934     C60.778,323.722,60.07,317.539,60.07,317.539z"/>
		</g>
	</g>
	<g>
		<path d="M-71.011,199c1.106,0,2.107-2.089,3.011-3.274c0.559-0.04,2.522-0.412,3.69-3.04l-0.108-0.033    c13.69-6.824,17.143-11.939,17.274-12.143c3.759-5.639,0.772-10.196-1.337-11.821c-3.534-2.692-8.283-1.594-11.282-0.434    c0.146-1.985,0.163-3.198,0.163-3.198c-5.054-0.63-10.132-1.157-14.614-1.449c0.05,1.776,0.076,3.844,0.089,5.33l1.857,0.048    l3.201,3.122l0.509,13.438l-11.599,0.438l-0.506-13.437l2.924-3.359l1.863-0.062c-0.015-1.691-0.044-3.848-0.094-5.584    c-23.365-1.272-38.276,1.612-38.276,1.612c-1.077,21.95,8.691,30.847,10.738,33.847H-136c4.142,2,14.711,5,24.98,7h-0.008    l4.149,2.748c0,0,11.905,0.875,19.492,0.875c10.117,0,19.053-1.123,19.053-1.123l3.893-2.819c17.766-2.1,24.37-6.681,24.37-6.681    H-71.011z M-60.197,172.597c1.563-0.798,6.572-3.062,9.41-0.901c0.334,0.257,3.193,2.638,0.486,6.698    c-0.029,0.044-2.877,4.045-13.606,9.711C-61.835,182.829-60.756,177.052-60.197,172.597z"/>
	</g>
	<g>
		<path d="M-122.923,321h0.002C-122.945,321-122.959,321-122.923,321z"/>
	</g>
	<path fill="#000000" d="M-112.646,311.771c-0.007,0.043-0.02,0.087-0.026,0.13c0.007,0.057,0.019,0.111,0.025,0.168   L-112.646,311.771z"/>
	<path fill="#000000" d="M-122.921,321.206c0.037-0.005,0.104-0.013,0.088-0.011l-0.013,0.001l-0.033,0.002l-0.032,0.006   L-122.921,321.206z"/>
	<path fill="#000000" d="M-123.515,297.384c0.03-0.007,0.056-0.014,0.086-0.021c0.013-0.005,0.029-0.013,0.042-0.018   L-123.515,297.384z"/>
	<g display="none">
		<path display="inline" fill="#000000" d="M-80.028,314.569c0,0-3.629,12.553,1.122,12.727c0,0,5.09-0.449,5.32-6.782"/>
		<g display="inline">
			<g>
				<g>
					<path d="M-80.028,314.569c-1.058,0.854-1.661,1.515-1.949,2.838c-0.151,0.72-0.575,2.885-0.622,4.993       c-0.027,1.053,0.053,2.099,0.248,2.912c0.185,0.813,0.505,1.373,0.503,1.37c0.011-0.003,0.127,0.314,0.558,0.798       c0.397,0.488,1.348,1.059,2.339,1.063l0.119,0.001l0.037-0.005c0.808-0.101,1.43-0.31,2.131-0.629       c0.675-0.315,1.312-0.751,1.834-1.238c1.063-0.979,1.58-2.117,1.771-2.596c0.547-1.458,0.198-2.437-0.525-3.563       c-0.861,1.061-1.365,1.609-1.772,2.61c-0.145,0.336-0.497,1.09-1.18,1.714c-0.337,0.314-0.749,0.6-1.198,0.811       c-0.422,0.209-0.985,0.367-1.28,0.403l0.156-0.004c-0.35-0.023-0.459-0.117-0.596-0.252c-0.127-0.133-0.199-0.291-0.199-0.285       c0.004-0.001-0.142-0.225-0.269-0.767c-0.128-0.535-0.201-1.372-0.174-2.284c0.042-1.828,0.436-3.893,0.56-4.568       C-79.302,316.633-79.553,315.84-80.028,314.569z"/>
				</g>
			</g>
		</g>
	</g>
	<g display="none">
		<path display="inline" fill="#000000" d="M-62.533,319.514c0,0,6.253,6.914,8.834,1.814c0,0,2.57-2.54-5.659-7.302"/>
		<g display="inline">
			<g>
				<g>
					<path d="M-62.533,319.514c0.104,1.261,0.347,2.086,1.33,2.884c0.271,0.213,0.817,0.634,1.579,1.069       c0.761,0.424,1.753,0.898,2.955,0.979c0.594,0.038,1.235-0.049,1.783-0.279c0.55-0.224,0.985-0.556,1.287-0.857       c0.604-0.615,0.801-1.069,0.813-1.063c0.002,0,0.076-0.127,0.196-0.354l-0.234,0.322c0.214-0.228,0.264-0.323,0.377-0.513       c0.097-0.172,0.182-0.366,0.245-0.582c0.131-0.429,0.166-0.938,0.089-1.43c-0.153-0.995-0.676-1.853-1.229-2.543       c-1.13-1.379-2.442-2.272-2.913-2.612c-1.025-0.699-1.857-0.695-3.104-0.507c0.446,1.185,0.761,1.875,1.659,2.531       c0.408,0.305,1.594,1.155,2.406,2.158c0.406,0.492,0.671,1.021,0.712,1.348c0.025,0.163,0.011,0.273-0.01,0.346       c-0.01,0.036-0.022,0.063-0.031,0.08l-0.009,0.015l0.207,0.157l0.183,0.153l0.146,0.13l0.111,0.104l0.08,0.077l0.02,0.02       c0.163,0.16-1.341-1.306-0.701-0.689l0.012-0.012l-0.131,0.131l-0.104,0.192l-0.119,0.218c-0.001-0.008-0.147,0.28-0.417,0.546       c-0.278,0.266-0.608,0.451-1.172,0.417c-0.562-0.026-1.289-0.326-1.872-0.66c-0.591-0.334-1.062-0.688-1.297-0.86       C-60.55,319.77-61.282,319.675-62.533,319.514z"/>
				</g>
			</g>
		</g>
	</g>
	<path d="M-56.505,358.019l-2.013-0.525l1.666-1.244C-38,344.5-58.895,316.183-60.5,313.75c-2.5-2.75-0.747-7.624-0.576-8.287   l0.09-0.345l0.287-0.211c7.392-5.432,5.1-13.42,4.83-14.267c-1.24-2.157-3.279-3.709-5.186-4.773   c6.968-5.438-2.036-8.271-2.036-8.271c-5.491-0.667-5.91,4.241-5.804,6.594c-2.728,0.948-5.989,3.188-7.277,4.189l-0.782,0.608   l-0.615-0.776c-1.191-1.503-2.504-2.265-3.901-2.265c-2.27,0-4.229,1.941-4.621,2.354c-0.727,1.397-0.863,2.505-0.405,3.293   c0.846,1.457,3.662,1.854,4.581,1.879l2.12,0.057l-1.392,1.6c-3.142,3.61-0.702,10.101-0.677,10.166l0.077,0.2l-0.013,0.213   c-0.274,4.982-4.17,10.783-4.335,11.027l-0.088,0.112c-6.313,6.949-10.573,13.455-12.775,19.471   c-0.025-0.179-0.06-0.354-0.078-0.534c-0.164-1.626-0.053-3.309,0.291-5.062c0.165-0.854,0.423-1.826,0.679-2.643   c0.224-0.839,0.447-1.777,0.667-2.75c0.464-2.112,1.372-6.415,1.568-11.688c0.09-2.628-0.01-5.5-0.555-8.341   c-0.539-2.83-1.563-5.637-3.254-7.836c-1.669-2.217-4.004-3.707-6.416-4.464c-2.415-0.772-4.839-0.914-6.884-0.866   c-4.115,0.147-6.771,0.89-6.767,0.845c0,0.003-0.609,0.124-1.683,0.384c-1.716,0.676-5.171,2.321-7.818,5.567   c-1.318,1.63-2.333,3.703-2.612,6.024c-0.303,2.368-0.084,4.967,0.818,7.172c0.887,2.224,2.617,3.848,4.753,4.548   c1.061,0.364,2.194,0.53,3.313,0.572c0.559,0.026,1.118-0.09,1.667-0.119l0.411-0.128h0.018l0.053,0.09l0.185,0.013   c0.251-0.052,0.506-0.088,0.756-0.155c2.016-0.542,3.733-1.387,4.984-2.288c1.263-0.9,2.065-1.84,2.547-2.531   c0.957-1.372,1.445-2.815,1.683-4.229c-0.277-2.095-1.091-4.116-2.699-4.663c-0.842-0.304-1.919-0.223-3,0.092   c-1.088,0.314-2.196,0.841-3.329,1.492c0.928-0.922,1.881-1.731,2.961-2.351c1.07-0.604,2.327-1.064,3.732-0.879   c1.418,0.174,2.676,1.149,3.436,2.28c0.787,1.164,1.263,2.386,1.536,3.901l0.017,0.092l-0.017,0.207   c-0.146,1.806-0.719,3.817-2,5.67c-0.474,0.691-1.198,1.565-2.202,2.434l0.818,1.244l-0.733-1l-5.783,5.208   c2.095,25.073,17.603,31.375,17.603,31.375c0.599,0.591,1.166,1.085,1.706,1.495c3.845,7.512,11.582,10.865,11.674,10.905   l1.109,0.469l-0.664,1.005c-1.14,1.719-1.488,3.18-1.037,4.342c0.754,1.946,3.525,2.661,3.553,2.668l0.256,0.103   c0.271,0.155,0.528,0.23,0.784,0.23c2.23,0,4.826-5.666,5.957-9.689L-77,364.25c1.333,0.583,3.089,0.258,3.089,0.258   c3.325,0,9.203-3.02,9.263-3.051l0.574-0.297l0.507,0.402c3.116,2.477,5.755,3.732,7.845,3.731c2.8,0,3.755-2.423,3.913-2.891   C-51.555,359.348-56.455,358.032-56.505,358.019z M-58.594,289.479c0.288,1.054-0.331,2.139-1.385,2.426   c-1.054,0.289-2.139-0.332-2.428-1.386c-0.287-1.053,0.334-2.138,1.388-2.426C-59.967,287.806-58.881,288.427-58.594,289.479z    M-70.543,295.953c-1.582,0.432-3.216-0.501-3.647-2.083c-0.433-1.582,0.501-3.216,2.082-3.648c1.583-0.43,3.217,0.501,3.647,2.083   C-68.028,293.888-68.961,295.521-70.543,295.953z M-57.577,295.291l-1.196,4.208l-4.38-1.714L-57.577,295.291z"/>
	<path display="none" d="M-60.273,315.272c0,0,0.442,0.353,1.942,0.882l1.413-1.765l-1.942-1.235L-60.273,315.272z"/>
	<g>
		<path fill="#000000" d="M48.521,335.765c0,0-6.273,1.203-12.469-2.065c0,0-0.458-0.277-0.461-0.651    c-0.006-0.625,2.377-1.024,12.908,0.879L48.521,335.765z"/>
		<path fill="#000000" d="M23.221,341.118c0,0-1.99-1.39,8.49-2.065v3.142L23.221,341.118z"/>
		<path fill="#000000" d="M48.464,336.161c0,0-6.272,1.201-12.47-2.066c0,0-0.229-0.279-0.234-0.651    c-0.006-0.625,2.152-1.024,12.684,0.876L48.464,336.161z"/>
		<path fill="#000000" d="M70.254,322.31c0,0-6.121,10.104-2.512,24.529c0,0,0.178,1.354-2.639,0.111c0,0,1.059-6.156-0.822-13.973    c0,0-0.847-5.128-5.974,0c0,0-6.537,5.521-8.001,12.961c0,0-0.789,2.592-6.988,3.041c0,0-17.92,1.878-20.098-7.287l12.207,0.553    l9.193-2.915l6.699-7.142l6.197-4.733l4.916-3.197l6.018-1.948H70.254z"/>
		<path fill="#000000" d="M70.254,321.735c0,0-6.121,10.105-2.512,24.529c0,0,0.178,1.354-2.639,0.113c0,0,1.059-6.156-0.822-13.975    c0,0-0.847-5.126-5.974,0c0,0-6.537,5.523-8.001,12.963c0,0-0.789,2.44-6.988,2.814c0,0-17.92,2.105-20.098-7.062l12.207,0.553    l9.193-2.912l6.699-7.144l6.197-4.733l4.916-3.197l6.018-1.949H70.254z"/>
		<path fill="#000000" d="M23.445,341.112c0,0,16.02,6.187,25.019-4.361c0,0,7.663-11.119,21.79-14.426c0,0,0.602-1.652,0-1.652    c0,0-13.451,3.455-24.268,16.828C45.986,337.501,42.894,344.419,23.445,341.112z"/>
		<path fill="#000000" d="M46.792,335.942c0,0,2.005-0.266,2.476-0.832c0.47-0.57-1.123,1.486-1.123,1.486L46.792,335.942z"/>
		<path fill="#000000" d="M56.557,326.962l0.244,0.901l-0.691,0.611c0,0,0.418-0.362-0.653-0.216    C54.387,328.403,56.557,326.962,56.557,326.962z"/>
		<path fill="#000000" d="M59.879,324.795c0,0,0.282,0.354,1.717,0.206l-1.065,0.585L59.879,324.795z"/>
		<polygon fill="#000000" points="29.498,341.403 30.025,342.524 29.974,341.425 29.974,340.45 29.04,341.381   "/>
		<path fill="#000000" d="M60.786,351.563"/>
		<path fill="#000000" d="M23.221,341.345c0,0,19.984,4.433,25.243-5.184c0,0,7.663-11.12,21.79-14.426c0,0,0.602-1.652,0-1.652    c0,0-13.451,3.453-24.268,16.828C45.986,336.911,42.904,344.048,23.221,341.345z"/>
		<path fill="#000000" d="M30.279,342.225c0,0-1.104-4.13,1.881-7.114l3.342-2.269c0,0,6.387,2.567,12.962,3.319l-1.394,1.908    c0,0-3.463,2.683-6.699,3.557C37.135,342.499,30.279,342.225,30.279,342.225z"/>
		<path fill="#000000" d="M56.541,328.198c0,0-0.113-7.629-5.071-8.342c0,0-3.754-1.43-8.151-1.43l0.79-2.025    c0,0,7.437,2.252,10.254,0.562c0,0,4.847-4.627,7.663-6.085l1.129,1.126c0,0-7.328,5.41-5.974,8.339c0,0,2.18,4.074,3.35,5.242    L56.541,328.198z"/>
		<polygon fill="#000000" points="50.984,317.456 54.341,318.212 56.201,319.889 53.903,320.68 49.969,319.173   "/>
		<polygon fill="#000000" points="50.572,317.456 53.686,318.134 55.414,319.633 53.281,320.342 49.629,318.993   "/>
		<polygon fill="#000000" stroke="#9FA4AB" stroke-width="0.3334" stroke-linecap="round" points="47.151,316.853 46.392,318.645     50.186,319.442 50.531,317.526   "/>
		
			<line fill="#000000" stroke="#9FA4AB" stroke-width="0.3334" stroke-linecap="round" x1="46.793" y1="317.697" x2="48.053" y2="317.923"/>
	</g>
	<g>
		<path fill="#000000" d="M180.641,320.748l-1.354,2.321c0,0-7.546-3.869-6.192-10.256c0,0,0.871-3.967,6.967-4.256    c0,0,14.125-0.193,19.737,6.772c0,0,5.418,5.805,9.288,1.741c0,0,2.902-2.709,0.773-7.547c0,0-1.838-5.515,3.967-4.934    c0,0,4.064,0.677,4.451,5.708c0,0-0.29-1.21-1.5-1.693c0,0,0.291,0.726-0.242,3.048c0,0-1.645-4.934-3.869-5.128    c0,0-2.129-0.193-2.322,4.16c0,0-1.549,9.095-8.224,3.677c0,0-16.545-11.32-25.349-6.967c0,0-4.064,1.549-2.129,5.807    C174.643,313.202,175.997,319.394,180.641,320.748z"/>
		<path fill="#000000" d="M173.094,333.519c0,0,3.484-5.805,5.419-10.062c0,0,1.935-4.836,2.902-10.061c0,0,1.741-6.967,5.999-9.482    l4.837,9.094l-13.738,24.576l-5.999-0.773C172.514,336.81,172.127,336.034,173.094,333.519z"/>
		<path fill="#000000" d="M172.32,335.261c0,0,0.097,17.125,6.966,18.963c0,0,5.031,1.162,6.967-1.547c0,0,3.386-3.581,1.161-16.836    c0,0-1.936-6.482,3.676-13.738c0,0,3.483-4.451,6.386-5.611c0,0,3.097-5.031-1.161-9.096c0,0-3.869-3.482-8.32-3.289    c0,0-4.838,22.253-9.676,28.252C178.318,332.358,175.223,336.228,172.32,335.261z"/>
		<path fill="#000000" d="M183.736,320.458l-0.096-0.193c0,0-4.935-4.354-0.871-7.062c0,0,1.741-1.549,5.225-1.742    c0,0,10.062,0,10.643-4.838c0,0-0.967-5.031-9.095-7.837c0,0-9.997-4.097-15.286,3.579c0,0-5.289,7.612-9.16,5.611    c0,0-3.869-2.449-0.129-6.578c0,0-3.998,2.322-3.225,4.451c0,0-1.807-0.871-0.645-3.773c0,0-4,4.74,2.128,8.03    c0,0,6.386,3.548,12.319-6.063c0,0,2.193-4.838,10.32-6.515c0,0,10.643-1.063,13.545,6.579c0,0,0.968,3.676-2.902,4.063    c0,0-1.548,0.774-6.772,0.774c0,0-7.353-0.291-7.739,5.225c0,0,0.387,2.419,2.611,3.387l-0.871,2.805V320.458z"/>
		<path fill="#000000" d="M189.929,312.04c0,0-3.87-9.094,3.29-13.545c0,0,7.159-2.516,9.095,10.836c0,0,1.161,9.289,3.483,12.965    c0,0,2.128,3.193,2.805,7.934c0,0,1.645,6.482-0.289,12.578c0,0-0.194,2.225-4.064,3.289c0,0-4.74,1.451-7.159-0.387    c0,0-4.45-3.096-6.192-13.545c0,0-0.58-2.709,0.387-7.547c0,0,0.774-3.29,0.193-6.58    C191.477,318.038,191.283,316.298,189.929,312.04z"/>
		<path fill="#000000" d="M195.153,301.011c0,0,5.177-1.596,6.337,12.143c0,0,0.291,1.935,1.21,5.611c0,0,2.903,8.562-2.322,9.529    c0,0-5.225,1.742-6.192-5.998c0,0,0-1.838-0.58-5.515c0,0-0.387-5.321-1.548-9.772    C192.058,307.009,190.703,302.171,195.153,301.011z"/>
		<path fill="#000000" d="M195.153,328.294c0,0,2.032,2.322,5.515,1.451c0,0,3.967-0.58,3.967-5.127c0,0,5.322,8.61,1.839,19.156    c0,0-1.741,1.839-5.031,1.646C201.442,345.42,195.057,346.388,195.153,328.294z"/>
		<path fill="#000000" d="M198.443,330.327c0,0,1.455,0,2.902-0.389c0,0,2.516-0.58,3.217-3.869c0,0,4.33,8.611,1.234,18.286    c0,0-0.969,0.677-2.322,0.774C203.475,345.13,198.377,348.419,198.443,330.327z"/>
		<path fill="#000000" d="M173.385,336.615c0,0,0.967,15.384,6.578,17.028c0,0,1.355,0.483,1.452-1.16c0,0,0-1.549-0.871-4.742    c0,0-1.451-6.965,1.161-14.706c0,0,2.516-7.062,3.87-11.319c0,0,2.128-6.869,1.839-9.772c0,0-1.839,7.353-2.71,9.481    c0,0-3.966,9.869-6.386,12.771C178.318,334.196,176.578,336.615,173.385,336.615z"/>
	</g>
	<g>
		<path fill="#000000" d="M281.552,318.768c0,0-16.876-13.199-19.6-0.648c0,0-9.459,21.455,7.031,18.311c0,0,7.69-1.124,9.602-3.392    l2.058-3.613c0,0,1.706-3.114-1.287-4.108c0,0-2.501-4.431,1.05-3.087C280.405,322.229,282.67,319.459,281.552,318.768z"/>
		<path fill="#000000" d="M284.012,334.677c0,0-1.835-2.865-5.257,1.771l-4.4,1.013c0,0-4.705,0.535-6.727,1.582    c0,0-3.987,1.113-4.286,2.229c0,0-6.644,8.534,3.46,13.791c0,0,19.845,9.433,21.913-1.506c0,0-0.729-14.26,1.877-19.116    c0,0-2.082-1.143-3.091-0.621l-1.436,6.156c0,0-2.201,4.963-2.74-1.127L284.012,334.677z"/>
		<path fill="#000000" d="M294.274,338.985c0,0-0.274-4.627-2.789-1.729c0,0-5.83,19.252,9.513,19.564c0,0,10.033,1.475,12.109-7.88    c0,0,2.345-4.479-2.32-5.983c0,0,0,0-4.913-2.668c0,0,0,0-1.523-0.805c0,0-1.674-1.038-3.812-2.796c0,0-3.368,3.663-0.623,6.372    c0,0,4.27,3.514,0.07,3.782c0,0-2.128-0.166-1.836-2.865c0,0-1.334-3.127-2.831,0.832c0,0-1.495,5.546-1.823,0.308    L294.274,338.985z"/>
		<path fill="#000000" d="M296.425,316.777c0,0-4.326,4.789-3.902-0.84c0,0,5.136-15.075,14.734-9.555c0,0,4.517,1.795,4.685,5.203    c0,0,1.586,2.995,3.911,2.431c0,0,6.479,0.133,6.223,9.181c0,0-0.4,20.892-9.483,16.697c0,0-6.742-1.594-10.605-4.999    c0,0-6.752-3.182,0.137-2.938c0,0,2.227-0.195-1.379-2.143c0,0-4.872-2.883,7.285-1.237c0,0,4.399-1.009-6.495-3.312    c0,0-6.696-2.57,1.649-3.722c0,0,11.387-1.137-1.53-2.384c0,0-6.023,0.576-0.332-5.238c0,0,1.087-5.658-3.344-0.493    L296.425,316.777z"/>
		<path fill="#000000" d="M289.665,322.373c0,0,0.563,7.89-3.981,5.662c0,0-2.321-1.821-2.022-5.903c0,0-0.746-14.286,2.271-22.197    c0,0,2.146-6.359,3.01-2.554c0,0-1.865,11.79-1.192,13.957L289.665,322.373z"/>
		<path fill="#000000" d="M285.162,292.387c0.764,1.188,2.396,1.627,3.654,0.972c1.251-0.651,1.65-2.139,0.892-3.326    c-0.762-1.188-2.398-1.619-3.65-0.97C284.803,289.713,284.4,291.199,285.162,292.387z"/>
		<path fill="#000000" d="M278.828,296.154c0.804,1.25,2.528,1.711,3.852,1.022c1.326-0.688,1.748-2.261,0.945-3.516    c-0.804-1.246-2.525-1.708-3.852-1.02C278.446,293.328,278.027,294.903,278.828,296.154z"/>
		<path fill="#000000" d="M291.218,295.962c0.844,1.318,2.435,1.914,3.55,1.336c1.116-0.579,1.335-2.117,0.488-3.434    c-0.845-1.318-2.433-1.923-3.552-1.341C290.59,293.102,290.371,294.64,291.218,295.962z"/>
		<path fill="#000000" d="M291.489,311.699c0,0,10.533-9.281,9.445-14.13c0,0,0.939-4.306-5.748-5.292l1.427,1.173    c0,0,3.753,2.187-0.377,6.239c0,0-3.128,1.941-5.009,0.057C291.228,299.746,288.901,310.817,291.489,311.699z"/>
		<path fill="#000000" d="M280.266,314.663c0,0-15.831-7.375-8.483-15.329c0,0,0.605-0.634,2.165-2.398c0,0,2.217-1.783,2.317-2.157    c0,0-2.003,4.222,6.254,5.034C282.519,299.812,279.045,314.34,280.266,314.663z"/>
	</g>
	<path d="M97.834,66.5c0.071-0.07-0.188,0.104-0.188,0.104c2.354-8.438-1.82-16.96-1.82-16.96c-0.825-1.395-0.971-2.787-0.971-2.787   c0-2.275-0.968-6.452-0.968-6.452c-1.337-2.534-0.609-6.202-0.609-6.202c0.65-0.968,0.946-5.27,1.049-7.235   c0.211-0.191,0.353-0.325,0.353-0.325c0-4.536-0.751-2.373-2.123-0.033c-3.137,0.542-9.217,0.755-9.217,0.755   c-2.069-0.539-5.282-0.707-8.091-0.735c-0.527-3.072-3.182-6.959-3.182-6.959c-0.188,0.327-2.296,2.433-4.818,4.898l-0.244-0.302   c-0.344-0.424-0.849-0.647-1.36-0.647c-0.334,0-0.672,0.096-0.969,0.293c-0.136,0.091-1.358,0.922-2.352,2.202   c-0.449,0.578-0.491,1.375-0.104,1.996c0.101,0.162,0.285,0.451,0.537,0.814c-0.372,0.359-0.733,0.708-1.081,1.042l-0.354-0.364   c-0.28-0.288-0.696-0.475-1.095-0.522c0,0-0.078-0.009-0.219-0.009c-1.233,0-2.808,0.72-3.528,2.739   c-0.19,0.533-0.11,1.125,0.214,1.59c0.15,0.216,0.363,0.51,0.619,0.846c-0.149,0.164-0.298,0.328-0.445,0.493l-0.248-0.265   c-0.341-0.363-0.807-0.554-1.278-0.554c-0.293,0-0.589,0.073-0.858,0.226c-0.513,0.289-3.046,1.846-2.545,4.089   c0.06,0.266,0.179,0.513,0.351,0.724c0.178,0.218,0.36,0.439,0.547,0.662c-0.024,0.032-0.039,0.052-0.039,0.052   c-0.04,0.024-0.086,0.062-0.128,0.091c-0.113-0.123-0.211-0.23-0.276-0.303c-0.338-0.369-0.81-0.569-1.292-0.569   c-0.198,0-0.397,0.033-0.59,0.103c-1.989,0.713-2.751,2.293-2.931,3.29c-0.039,0-0.079,0.001-0.118,0.005   c-0.406,0.028-2.487,0.24-3.631,1.579c-0.369,0.433-0.505,1.018-0.365,1.568c0.069,0.273,0.141,0.535,0.212,0.795   c-0.214,0.027-0.441,0.076-0.683,0.146l-0.189-0.519c-0.252-0.69-0.908-1.15-1.644-1.15c-1.133,0-3.24,0.525-3.949,2.494   c-0.13,0.361-0.138,0.755-0.022,1.121l0.329,1.041c-0.518,0.362-0.844,0.607-0.844,0.607c-0.018-0.003-0.05,0.004-0.072,0.005   c-0.061-0.237-0.112-0.46-0.181-0.709c-0.212-0.776-0.916-1.288-1.687-1.288c-0.142,0-0.285,0.017-0.429,0.053   c-0.615,0.155-2.693,0.773-3.603,2.229c-0.305,0.487-0.35,1.093-0.122,1.62l0.273,0.632c-0.3,0.153-0.484,0.25-0.484,0.25   c-0.379,0-0.824,0.094-1.298,0.242c0.011-0.079,0.021-0.159,0.021-0.242c0-0.939-0.738-1.706-1.667-1.748   c-0.028-0.002-0.057-0.002-0.086-0.002c-0.064,0-0.13,0.003-0.195,0.011c-0.103,0.012-0.202,0.031-0.298,0.06   c-0.483,0.132-2.394,0.712-3.386,1.88c-0.354,0.416-0.492,0.972-0.377,1.504c0.101,0.463,0.233,1.003,0.401,1.568   c-1.015,0.648-3.134,1.353-4.757,1.834c-3.264-0.24-10.621-0.628-13.479,1.879c-0.047-0.087-0.061-0.002-0.031-0.08   c0,0-3.754,4.003-3.152,9.214c0,0,8.447,3.447,24.808,6.116l0.087,0.015c4.11,0.656,13.178,1.497,25.413,1.497   c0.82,0,1.652-0.004,2.5-0.012c0,0,39.498-0.342,41.07-0.584C95.945,75.916,98.442,73.653,97.834,66.5L97.834,66.5z M78.858,40.038   c4.687,0,8.484,3.792,8.484,8.482c0,4.685-3.798,8.484-8.484,8.484c-4.688,0-8.485-3.8-8.485-8.484   C70.373,43.83,74.17,40.038,78.858,40.038z M65.646,25.369l3.442,4.245c0.019,0,0.035-0.005,0.053-0.005   c1.08,0,1.962,0.827,1.962,1.839c0,1.02-0.882,1.845-1.962,1.845s-1.963-0.825-1.963-1.845c0-0.059,0.013-0.114,0.019-0.172   c-1.887-1.511-3.49-4.089-3.49-4.089C64.554,26.096,65.646,25.369,65.646,25.369z M60.067,30.823l4.273,4.39   c0.093-0.014,0.185-0.028,0.28-0.028c1.083,0,1.956,0.876,1.956,1.96c0,1.082-0.873,1.962-1.956,1.962   c-1.081,0-1.962-0.88-1.962-1.962c0-0.031,0.008-0.061,0.009-0.091c-2.299-1.453-4.54-4.655-4.54-4.655   C58.733,30.701,60.067,30.823,60.067,30.823z M62.667,62.857c0,0.92-0.743,1.665-1.658,1.665c-0.919,0-1.666-0.745-1.666-1.665   c0-0.918,0.747-1.659,1.666-1.659C61.924,61.198,62.667,61.939,62.667,62.857z M55.342,35.671l5.023,5.361   c0.072-0.009,0.144-0.022,0.218-0.022c1.084,0,1.96,0.88,1.96,1.963c0,1.079-0.876,1.957-1.96,1.957   c-1.073,0-1.943-0.866-1.955-1.936c-2.23-1.757-4.982-5.14-4.982-5.14C53.402,36.765,55.342,35.671,55.342,35.671z M51.1,40.642   c0,0,3.429,3.752,4.341,4.903c0.074-0.009,0.147-0.021,0.224-0.021c0.981,0,1.779,0.772,1.779,1.721   c0,0.951-0.798,1.721-1.779,1.721c-0.901,0-1.641-0.648-1.76-1.487c-0.311-0.189-0.613-0.436-0.867-0.774l-3.756-4.001   C49.281,42.702,49.403,41.249,51.1,40.642z M53.646,62.857c0,0.92-0.744,1.665-1.663,1.665c-0.921,0-1.665-0.745-1.665-1.665   c0-0.918,0.744-1.659,1.665-1.659C52.901,61.198,53.646,61.939,53.646,62.857z M47.585,44.034l1.696,4.734   c0.022,0.187,0.026,0.355,0.032,0.525c0.783,0.217,1.355,0.834,1.355,1.571c0,0.921-0.88,1.666-1.96,1.666   c-1.081,0-1.959-0.745-1.959-1.666c0-0.286,0.093-0.551,0.242-0.785c-1.06-2.049-1.831-5.075-1.831-5.075   C45.887,44.155,47.585,44.034,47.585,44.034z M41.161,46.459l1.814,4.973c0.031,0.217,0.05,0.426,0.06,0.625   c0.721,0.246,1.233,0.841,1.233,1.541c0,0.916-0.886,1.66-1.966,1.66c-1.082,0-1.957-0.744-1.957-1.66   c0-0.249,0.068-0.482,0.183-0.694c-0.061-0.084-0.098-0.139-0.098-0.139l-1.572-4.969C39.34,46.459,41.161,46.459,41.161,46.459z    M34.734,49.73c0.542,1.979,0.776,3.375,0.836,4.375c0.892,0.156,1.562,0.826,1.562,1.629c0,0.916-0.878,1.66-1.961,1.66   c-1.079,0-1.959-0.744-1.959-1.66c0-0.411,0.183-0.783,0.475-1.073l-1.499-3.472C32.795,50.219,34.734,49.73,34.734,49.73z    M7.667,60.486c2.834-1.07,7.66-0.991,7.66-0.991c1.543,0.009,2.979,0.089,4.038,0.185c-0.223,1.224-0.656,3.522-0.814,4.551   c-4.454-1.042-9.271-2.293-11.717-3.327C7.078,60.748,4.833,61.557,7.667,60.486z M24.672,72.85   c-11.317-1.998-18.408-4.309-20.918-5.204c0.029-2.253,0.971-4.198,1.743-5.421c1.591,0.766,4.744,1.815,11.278,3.384   c3.376,0.811,6.715,1.53,8.845,1.977L24.672,72.85z M25.369,58.117c0-0.368,0.146-0.705,0.385-0.981   c-0.602-1.402-0.958-3.037-0.958-3.037c0.725-0.853,2.546-1.334,2.546-1.334c-0.605,0.365,0.969,3.88,0.969,3.88   c0.001,0.015,0,0.026,0.001,0.04c0.583,0.288,0.979,0.818,0.979,1.433c0,0.916-0.876,1.66-1.96,1.66   C26.247,59.777,25.369,59.033,25.369,58.117z M95.045,74.221c-4.226,0.169-25.717,0.404-40.187,0.529   c-0.842,0.008-1.668,0.012-2.483,0.012c-11.734,0-20.875-0.795-25.122-1.473l-0.096-0.017c-0.344-0.056-0.67-0.113-1.006-0.17   l0.307-1.704C29.092,71.857,37.853,73.1,55.237,73c0.114,0.002,4.653,0.077,10.883,0.077c9.142,0,21.909-0.163,29.678-0.956   C95.57,73.164,95.267,73.842,95.045,74.221z M96.032,70.588c-12.794,1.374-40.486,0.917-40.787,0.912   c-17.104,0.102-25.949-1.144-28.521-1.582l0.332-1.846l1.06,0.075l14.369,1.026l0.044,0.004l0.045,0.001l23.272,0.486h0.031h0.031   l19.367-0.29l0.051-0.001l0.052-0.004l10.73-0.792C96.121,69.333,96.089,69.994,96.032,70.588z"/>
	<polygon points="78.737,43.147 80.36,46.434 83.981,46.962 81.361,49.517 81.979,53.13 78.737,51.422 75.497,53.13 76.117,49.517    73.491,46.962 77.117,46.434  "/>
</g>
</svg>